#!OML:ASF E:\motion texture\Top Level 1\Subject 1\Session 1\male.ASF
:FULLY-SPECIFIED
:DEGREES
313
root 13.3623 17.8685 4.94147 139.525 -83.7164 -136.241
lowerback -2.69767 -1.70159 -0.294522
upperback -4.15267 -2.32596 2.55126
thorax -2.6395 -1.16059 2.7823
lowerneck -6.79531 -2.28089 -10.0971
upperneck -11.8893 -1.9409 15.9941
head -2.0224 -1.16571 6.62255
rclavicle 2.01766e-014 -1.49089e-015
rhumerus -30.7735 26.4964 -105.867
rradius 62.7744
rwrist -53.587
rhand -11.6954 -65.8108
rfingers 7.12502
rthumb 14.3505 -624.705
lclavicle 2.01766e-014 -1.49089e-015
lhumerus 30.673 -22.5694 95.4599
lradius 74.4706
lwrist 56.0315
lhand -5.89879 54.0818
lfingers 7.12502
lthumb 19.9296 83.0799
rfemur -15.9668 0.175302 21.4498
rtibia 58.2337
rfoot 2.7802 -9.54029
rtoes 6.79495
lfemur -17.4308 4.55895 -16.9641
ltibia 19.8007
lfoot -5.6503 1.32833
ltoes 0.579752
314
root 13.2249 17.8804 4.95328 136.329 -84.2142 -133.1
lowerback -2.65441 -1.75198 -0.491261
upperback -4.08739 -2.38854 2.49117
thorax -2.58785 -1.1861 2.82982
lowerneck -6.72557 -2.4778 -10.246
upperneck -12.1723 -2.18159 16.0729
head -2.07971 -1.29233 6.67726
rclavicle -5.25537e-015 -2.6339e-014
rhumerus -30.4264 26.2674 -105.742
rradius 62.3626
rwrist -53.8339
rhand -11.7577 -66.1968
rfingers 7.12502
rthumb 14.2904 -624.315
lclavicle -5.25537e-015 -2.6339e-014
lhumerus 28.989 -23.4298 95.8776
lradius 76.2138
lwrist 56.2538
lhand -5.98064 54.5937
lfingers 7.12502
lthumb 19.851 83.5999
rfemur -16.8115 -0.229863 21.3204
rtibia 58.6445
rfoot 2.78987 -9.89489
rtoes 7.23104
lfemur -16.8392 4.42395 -17.2289
ltibia 19.6714
lfoot -5.93145 0.876826
ltoes 0.775723
315
root 13.0892 17.8916 4.96465 132.545 -84.6813 -129.357
lowerback -2.60598 -1.79958 -0.669521
upperback -4.02618 -2.44784 2.42844
thorax -2.5441 -1.21067 2.86461
lowerneck -6.65228 -2.67167 -10.3906
upperneck -12.4636 -2.41865 16.1526
head -2.14006 -1.41765 6.73209
rclavicle 9.00743e-015 1.42131e-014
rhumerus -30.0439 26.0255 -105.607
rradius 61.9917
rwrist -54.096
rhand -11.8348 -66.5856
rfingers 7.12502
rthumb 14.2162 -623.921
lclavicle 9.00743e-015 1.42131e-014
lhumerus 27.24 -24.2958 96.3178
lradius 77.957
lwrist 56.4345
lhand -6.07774 55.118
lfingers 7.12502
lthumb 19.7576 84.1339
rfemur -17.6563 -0.623629 21.2054
rtibia 58.9411
rfoot 2.72831 -10.2399
rtoes 7.6373
lfemur -16.2552 4.28706 -17.4733
ltibia 19.5225
lfoot -6.19981 0.440336
ltoes 0.970849
316
root 12.9548 17.9022 4.97552 128.089 -85.1121 -124.929
lowerback -2.55219 -1.84452 -0.832506
upperback -3.9692 -2.50399 2.36345
thorax -2.50844 -1.23424 2.88889
lowerneck -6.57524 -2.86298 -10.5301
upperneck -12.7627 -2.65294 16.2308
head -2.20327 -1.54201 6.78617
rclavicle -3.01345e-014 -1.78409e-014
rhumerus -29.6261 25.7708 -105.46
rradius 61.6668
rwrist -54.3652
rhand -11.9324 -66.9859
rfingers 7.12502
rthumb 14.1221 -623.514
lclavicle -3.01345e-014 -1.78409e-014
lhumerus 25.4275 -25.1611 96.7826
lradius 79.691
lwrist 56.5667
lhand -6.17931 55.6558
lfingers 7.12502
lthumb 19.66 84.6817
rfemur -18.4926 -1.005 21.1014
rtibia 59.1152
rfoot 2.59887 -10.5773
rtoes 8.02512
lfemur -15.6767 4.14937 -17.7003
ltibia 19.3546
lfoot -6.45392 0.0150185
ltoes 1.17178
317
root 12.8217 17.9121 4.98592 122.883 -85.4981 -119.739
lowerback -2.50413 -1.88613 -0.986915
upperback -3.90883 -2.55597 2.30115
thorax -2.46638 -1.25618 2.91087
lowerneck -6.49896 -3.05175 -10.6667
upperneck -13.0749 -2.88409 16.3042
head -2.2704 -1.66507 6.83894
rclavicle -8.59122e-015 1.93815e-014
rhumerus -29.1612 25.5104 -105.289
rradius 61.3972
rwrist -54.6469
rhand -12.0361 -67.3906
rfingers 7.12502
rthumb 14.0222 -623.102
lclavicle -8.59122e-015 1.93815e-014
lhumerus 23.5695 -26.0194 97.2725
lradius 81.4071
lwrist 56.6449
lhand -6.32777 56.184
lfingers 7.12502
lthumb 19.5172 85.2244
rfemur -19.318 -1.37098 21.0075
rtibia 59.1652
rfoot 2.40261 -10.9024
rtoes 8.38301
lfemur -15.1064 4.01239 -17.911
ltibia 19.1731
lfoot -6.69607 -0.392987
ltoes 1.37113
318
root 12.6901 17.9212 4.99583 116.87 -85.8311 -113.73
lowerback -2.46371 -1.92503 -1.13382
upperback -3.84558 -2.60458 2.24226
thorax -2.41731 -1.27688 2.93183
lowerneck -6.42151 -3.23702 -10.7996
upperneck -13.4005 -3.11108 16.3707
head -2.34209 -1.78636 6.88969
rclavicle -2.93891e-014 8.54774e-015
rhumerus -28.6488 25.2484 -105.094
rradius 61.1838
rwrist -54.9362
rhand -12.1331 -67.7674
rfingers 7.12502
rthumb 13.9288 -622.719
lclavicle -2.93891e-014 8.54774e-015
lhumerus 21.6694 -26.8632 97.787
lradius 83.098
lwrist 56.6656
lhand -6.51894 56.7063
lfingers 7.12502
lthumb 19.3334 85.7653
rfemur -20.1307 -1.72093 20.9229
rtibia 59.0896
rfoot 2.14436 -11.2115
rtoes 8.69645
lfemur -14.5484 3.87499 -18.1065
ltibia 18.9841
lfoot -6.92889 -0.778553
ltoes 1.56907
319
root 12.5596 17.9297 5.00532 110.091 -86.1006 -106.941
lowerback -2.42862 -1.96011 -1.26903
upperback -3.78181 -2.64835 2.18466
thorax -2.36532 -1.29567 2.94739
lowerneck -6.34367 -3.41842 -10.9264
upperneck -13.7333 -3.3338 16.4318
head -2.41651 -1.90572 6.93834
rclavicle 3.45854e-015 -8.72168e-015
rhumerus -28.092 24.9837 -104.881
rradius 61.0337
rwrist -55.2313
rhand -12.2269 -68.131
rfingers 7.12502
rthumb 13.8384 -622.349
lclavicle 3.45854e-015 -8.72168e-015
lhumerus 19.7268 -27.6867 98.3234
lradius 84.7553
lwrist 56.6259
lhand -6.81245 57.1827
lfingers 7.12502
lthumb 19.0512 86.2696
rfemur -20.9274 -2.05045 20.8467
rtibia 58.8873
rfoot 1.82776 -11.5034
rtoes 8.96466
lfemur -14.0027 3.7387 -18.2866
ltibia 18.7893
lfoot -7.1538 -1.14179
ltoes 1.76959
320
root 12.4302 17.9374 5.01439 102.663 -86.2999 -99.4927
lowerback -2.40075 -1.99144 -1.39282
upperback -3.71663 -2.68731 2.12829
thorax -2.30847 -1.31259 2.9575
lowerneck -6.26389 -3.59488 -11.0483
upperneck -14.0746 -3.55066 16.4896
head -2.49447 -2.02248 6.98591
rclavicle 1.34616e-014 1.69775e-014
rhumerus -27.4867 24.7099 -104.645
rradius 60.9438
rwrist -55.4943
rhand -12.5063 -68.4504
rfingers 7.12502
rthumb 13.5691 -622.012
lclavicle 1.34616e-014 1.69775e-014
lhumerus 17.7466 -28.4817 98.8814
lradius 86.3724
lwrist 56.5257
lhand -7.13717 57.6453
lfingers 7.12502
lthumb 18.7389 86.7627
rfemur -21.7043 -2.35891 20.7774
rtibia 58.558
rfoot 1.45912 -11.7754
rtoes 9.1837
lfemur -13.4699 3.60329 -18.4528
ltibia 18.5915
lfoot -7.3735 -1.48334
ltoes 1.96306
321
root 12.3018 17.9444 5.02306 94.8493 -86.4245 -91.6469
lowerback -2.38048 -2.01836 -1.50571
upperback -3.64823 -2.72046 2.0734
thorax -2.24473 -1.32713 2.9627
lowerneck -6.19186 -3.76766 -11.1598
upperneck -14.4206 -3.76368 16.5389
head -2.57341 -2.13731 7.02944
rclavicle -1.134e-014 1.81267e-014
rhumerus -26.8265 24.4299 -104.385
rradius 60.9153
rwrist -55.7198
rhand -12.6093 -68.7795
rfingers 7.12502
rthumb 13.4698 -621.676
lclavicle -1.134e-014 1.81267e-014
lhumerus 15.7381 -29.2411 99.4567
lradius 87.9436
lwrist 56.3673
lhand -7.49258 58.0899
lfingers 7.12502
lthumb 18.397 87.24
rfemur -22.459 -2.64363 20.7138
rtibia 58.1012
rfoot 1.04622 -12.0294
rtoes 9.34541
lfemur -12.9509 3.46951 -18.6055
ltibia 18.3928
lfoot -7.58866 -1.80167
ltoes 2.15505
322
root 12.1744 17.9507 5.03134 86.9459 -86.4742 -83.7012
lowerback -2.35954 -2.04222 -1.60596
upperback -3.58617 -2.74984 2.02073
thorax -2.18859 -1.34013 2.96334
lowerneck -6.11126 -3.93255 -11.2674
upperneck -14.7663 -3.9676 16.5845
head -2.65495 -2.24771 7.07184
rclavicle 2.14097e-014 -4.52235e-015
rhumerus -26.1403 24.1638 -104.12
rradius 60.9795
rwrist -56.0199
rhand -12.7765 -69.0739
rfingers 7.12502
rthumb 13.3086 -621.371
lclavicle 2.14097e-014 -4.52235e-015
lhumerus 13.6832 -29.9501 100.06
lradius 89.4625
lwrist 56.1488
lhand -7.87529 58.512
lfingers 7.12502
lthumb 18.0288 87.6965
rfemur -23.1875 -2.90492 20.6561
rtibia 57.5175
rfoot 0.597315 -12.2643
rtoes 9.45038
lfemur -12.4447 3.33511 -18.7438
ltibia 18.1947
lfoot -7.80084 -2.09495
ltoes 2.34268
323
root 12.0477 17.9563 5.03933 79.319 -86.4543 -76.0221
lowerback -2.34374 -2.06226 -1.69389
upperback -3.52529 -2.77428 1.97004
thorax -2.13152 -1.35108 2.95898
lowerneck -6.03077 -4.09155 -11.3636
upperneck -15.1119 -4.16539 16.6207
head -2.73785 -2.35509 7.1098
rclavicle 1.97045e-014 -1.98785e-016
rhumerus -25.4113 23.9057 -103.842
rradius 61.1239
rwrist -56.3373
rhand -12.9549 -69.3679
rfingers 7.12502
rthumb 13.1366 -621.066
lclavicle 1.97045e-014 -1.98785e-016
lhumerus 11.6006 -30.6037 100.682
lradius 90.924
lwrist 55.8753
lhand -8.28234 58.9149
lfingers 7.12502
lthumb 17.6372 88.135
rfemur -23.8881 -3.14126 20.6027
rtibia 56.8076
rfoot 0.124932 -12.4715
rtoes 9.48527
lfemur -11.9524 3.20037 -18.8691
ltibia 17.9996
lfoot -8.01221 -2.36334
ltoes 2.51965
324
root 11.9218 17.9612 5.047 72.2713 -86.3737 -68.9136
lowerback -2.33164 -2.07849 -1.76798
upperback -3.46652 -2.79383 1.92122
thorax -2.07538 -1.36001 2.94877
lowerneck -5.94993 -4.24381 -11.4491
upperneck -15.455 -4.35588 16.6496
head -2.8216 -2.45887 7.14405
rclavicle -7.29291e-015 9.44227e-015
rhumerus -24.6395 23.6557 -103.55
rradius 61.3502
rwrist -56.6622
rhand -13.1194 -69.6665
rfingers 7.12502
rthumb 12.9781 -620.757
lclavicle -7.29291e-015 9.44227e-015
lhumerus 9.49488 -31.1935 101.317
lradius 92.321
lwrist 55.5505
lhand -8.71999 59.2888
lfingers 7.12502
lthumb 17.216 88.5461
rfemur -24.5582 -3.35106 20.5542
rtibia 55.9742
rfoot -0.361338 -12.6482
rtoes 9.43522
lfemur -11.4731 3.06579 -18.9803
ltibia 17.8089
lfoot -8.22361 -2.60778
ltoes 2.69074
325
root 11.7965 17.9653 5.05443 65.9911 -86.2453 -62.565
lowerback -2.32587 -2.0909 -1.82835
upperback -3.4071 -2.80836 1.87467
thorax -2.01585 -1.36687 2.93297
lowerneck -5.87171 -4.38882 -11.5252
upperneck -15.7968 -4.538 16.6725
head -2.9062 -2.5585 7.17525
rclavicle -5.75233e-015 2.75317e-014
rhumerus -23.8188 23.4172 -103.243
rradius 61.6603
rwrist -56.9942
rhand -13.2764 -69.9641
rfingers 7.12502
rthumb 12.8268 -620.45
lclavicle -5.75233e-015 2.75317e-014
lhumerus 7.37865 -31.712 101.959
lradius 93.648
lwrist 55.1757
lhand -9.18412 59.6357
lfingers 7.12502
lthumb 16.7692 88.9315
rfemur -25.1956 -3.5339 20.5095
rtibia 55.0208
rfoot -0.846481 -12.7894
rtoes 9.29452
lfemur -11.0061 2.93277 -19.0786
ltibia 17.6244
lfoot -8.43749 -2.82827
ltoes 2.85682
326
root 11.6716 17.9685 5.0617 60.4597 -86.0765 -56.9554
lowerback -2.32773 -2.10201 -1.87223
upperback -3.35007 -2.82133 1.83074
thorax -1.95523 -1.37341 2.91041
lowerneck -5.7954 -4.52677 -11.5912
upperneck -16.1329 -4.71226 16.6887
head -2.99053 -2.65411 7.20292
rclavicle 1.04238e-014 3.27995e-015
rhumerus -22.9531 23.1903 -102.922
rradius 62.0556
rwrist -57.3277
rhand -13.4372 -70.2482
rfingers 7.12502
rthumb 12.6717 -620.156
lclavicle 1.04238e-014 3.27995e-015
lhumerus 5.25765 -32.1534 102.603
lradius 94.9024
lwrist 54.7607
lhand -9.68372 59.9478
lfingers 7.12502
lthumb 16.2882 89.2837
rfemur -25.8011 -3.69533 20.4696
rtibia 53.9511
rfoot -1.31425 -12.8882
rtoes 9.08945
lfemur -10.5561 2.79639 -19.1637
ltibia 17.4493
lfoot -8.65447 -3.02572
ltoes 3.02324
